<svg width="32" height="14" viewBox="0 0 32 14" fill="none" xmlns="http://www.w3.org/2000/svg">
<path d="M5.93353 1.80457C5.57434 2.26299 4.96648 2.60499 4.48295 2.60499C4.4277 2.60499 4.37244 2.59771 4.3379 2.59044C4.33099 2.56133 4.31718 2.47401 4.31718 2.38669C4.31718 1.80457 4.60038 1.22245 4.90431 0.858628C5.29113 0.378378 5.94043 0.0218295 6.47922 0C6.49303 0.0654886 6.49994 0.14553 6.49994 0.225572C6.49994 0.807692 6.26509 1.38254 5.93353 1.80457ZM6.31344 2.72869C6.61737 2.72869 7.71566 2.7578 8.43403 3.84927C8.37187 3.90021 7.28049 4.54782 7.28049 5.99584C7.28049 7.66944 8.66889 8.26611 8.71033 8.28067C8.70343 8.31705 8.48929 9.08836 7.97814 9.8815C7.52225 10.5728 7.03872 11.2713 6.31344 11.2713C5.58124 11.2713 5.39474 10.8202 4.55894 10.8202C3.73695 10.8202 3.44683 11.2859 2.78371 11.2859C2.11369 11.2859 1.65089 10.6383 1.11901 9.85239C0.497339 8.921 0 7.48025 0 6.11227C0 3.92204 1.35387 2.7578 2.68701 2.7578C3.39157 2.7578 3.97871 3.24532 4.4277 3.24532C4.84905 3.24532 5.50526 2.72869 6.31344 2.72869Z" fill="black"/>
<path d="M9.78251 11.2058V0.705821H13.7612C15.7851 0.705821 17.1528 2.11019 17.1528 4.2131V4.22765C17.1528 6.32328 15.7851 7.73493 13.7612 7.73493H11.5646V11.2058H9.78251ZM13.326 2.24116H11.5646V6.22141H13.326C14.6039 6.22141 15.3499 5.49376 15.3499 4.23493V4.22037C15.3499 2.96154 14.6039 2.24116 13.326 2.24116Z" fill="black"/>
<path d="M20.0831 11.3368C18.6463 11.3368 17.6033 10.4054 17.6033 8.95738V8.94283C17.6033 7.52391 18.6325 6.69439 20.4699 6.57796L22.4109 6.45426V5.77027C22.4109 4.97713 21.9205 4.54054 20.9949 4.54054C20.2074 4.54054 19.6963 4.83888 19.5236 5.36279L19.5167 5.39189H17.8934L17.9003 5.3264C18.0661 3.98753 19.2818 3.09979 21.0778 3.09979C23.0188 3.09979 24.1101 4.0894 24.1101 5.77027V11.2058H22.4109V10.1143H22.2935C21.879 10.8857 21.0778 11.3368 20.0831 11.3368ZM19.3025 8.87006C19.3025 9.54678 19.8482 9.94699 20.608 9.94699C21.6442 9.94699 22.4109 9.23389 22.4109 8.28794V7.64761L20.7117 7.76403C19.7515 7.82952 19.3025 8.20062 19.3025 8.85551V8.87006Z" fill="black"/>
<path d="M26.1079 14C25.9007 14 25.6589 13.9927 25.4517 13.9709V12.5811C25.5899 12.5956 25.7833 12.6029 25.9629 12.6029C26.6674 12.6029 27.0888 12.2973 27.2753 11.5769L27.3651 11.2131L24.6643 3.2526H26.5431L28.3045 9.46674H28.4357L30.1902 3.2526H32L29.2923 11.3732C28.643 13.3669 27.7795 14 26.1079 14Z" fill="black"/>
</svg>
