<svg width="25" height="24" viewBox="0 0 25 24" fill="none" xmlns="http://www.w3.org/2000/svg">
<path fill-rule="evenodd" clip-rule="evenodd" d="M4.42157 3.17157C3.25 4.34315 3.25 6.22876 3.25 10V14C3.25 17.7712 3.25 19.6569 4.42157 20.8284C5.59315 22 7.47876 22 11.25 22H13.25C17.0212 22 18.9069 22 20.0784 20.8284C21.25 19.6569 21.25 17.7712 21.25 14V10C21.25 6.22876 21.25 4.34315 20.0784 3.17157C18.9069 2 17.0212 2 13.25 2H11.25C7.47876 2 5.59315 2 4.42157 3.17157ZM8.25 9.25C7.83579 9.25 7.5 9.58579 7.5 10C7.5 10.4142 7.83579 10.75 8.25 10.75H16.25C16.6642 10.75 17 10.4142 17 10C17 9.58579 16.6642 9.25 16.25 9.25H8.25ZM8.25 13.25C7.83579 13.25 7.5 13.5858 7.5 14C7.5 14.4142 7.83579 14.75 8.25 14.75H13.25C13.6642 14.75 14 14.4142 14 14C14 13.5858 13.6642 13.25 13.25 13.25H8.25Z" fill="#141414"/>
</svg>
