<svg width="25" height="24" viewBox="0 0 25 24" fill="none" xmlns="http://www.w3.org/2000/svg">
<path d="M10.8302 7.89712C11.9068 5.96571 12.4452 5 13.25 5C14.0548 5 14.5932 5.96571 15.6698 7.89712L15.9484 8.3968C16.2543 8.94564 16.4073 9.22007 16.6458 9.40114C16.8843 9.5822 17.1814 9.64942 17.7755 9.78384L18.3164 9.90622C20.4071 10.3793 21.4525 10.6158 21.7012 11.4156C21.9499 12.2153 21.2372 13.0487 19.8119 14.7154L19.4432 15.1466C19.0381 15.6203 18.8356 15.8571 18.7445 16.1501C18.6534 16.443 18.684 16.759 18.7453 17.3909L18.801 17.9662C19.0165 20.19 19.1242 21.3019 18.4731 21.7962C17.822 22.2905 16.8432 21.8398 14.8857 20.9385L14.3792 20.7053C13.823 20.4492 13.5448 20.3211 13.25 20.3211C12.9552 20.3211 12.677 20.4492 12.1208 20.7053L11.6143 20.9385C9.65677 21.8398 8.678 22.2905 8.02688 21.7962C7.37575 21.3019 7.4835 20.19 7.69899 17.9662L7.75474 17.3909C7.81597 16.759 7.84659 16.443 7.75548 16.1501C7.66438 15.8571 7.46186 15.6203 7.05683 15.1466L6.68808 14.7154C5.26276 13.0487 4.5501 12.2153 4.79881 11.4156C5.04751 10.6158 6.09288 10.3793 8.18361 9.90622L8.7245 9.78384C9.31862 9.64942 9.61568 9.5822 9.8542 9.40114C10.0927 9.22007 10.2457 8.94565 10.5516 8.3968L10.8302 7.89712Z" fill="white"/>
<path d="M5.61752 2.50033C5.64751 2.39455 5.83528 2.39392 5.86598 2.4995C6.00618 2.98161 6.26616 3.69422 6.65928 4.0847C7.05241 4.47518 7.76676 4.73033 8.24981 4.86728C8.3556 4.89727 8.35623 5.08503 8.25065 5.11574C7.76854 5.25594 7.05592 5.51591 6.66545 5.90904C6.27497 6.30216 6.01981 7.01652 5.88287 7.49957C5.85288 7.60535 5.66511 7.60599 5.63441 7.50041C5.49421 7.0183 5.23424 6.30568 4.84111 5.9152C4.44798 5.52472 3.73363 5.26957 3.25058 5.13263C3.1448 5.10264 3.14416 4.91487 3.24974 4.88417C3.73185 4.74396 4.44447 4.48399 4.83495 4.09087C5.22543 3.69774 5.48058 2.98338 5.61752 2.50033Z" fill="#FF9500"/>
<path fill-rule="evenodd" clip-rule="evenodd" d="M19.75 3.25C20.1642 3.25 20.5 3.58579 20.5 4V4.25H20.75C21.1642 4.25 21.5 4.58579 21.5 5C21.5 5.41421 21.1642 5.75 20.75 5.75H20.5V6C20.5 6.41421 20.1642 6.75 19.75 6.75C19.3358 6.75 19 6.41421 19 6V5.75H18.75C18.3358 5.75 18 5.41421 18 5C18 4.58579 18.3358 4.25 18.75 4.25H19V4C19 3.58579 19.3358 3.25 19.75 3.25Z" fill="#FF9500"/>
</svg>
